<?xml version="1.0" encoding="UTF-8" standalone="no"?><!DOCTYPE svg PUBLIC "-//W3C//DTD SVG 1.1//EN" "http://www.w3.org/Graphics/SVG/1.1/DTD/svg11.dtd"><svg width="100%" height="100%" viewBox="0 0 50 67" version="1.1" xmlns="http://www.w3.org/2000/svg" xmlns:xlink="http://www.w3.org/1999/xlink" xml:space="preserve" xmlns:serif="http://www.serif.com/" style="fill-rule:evenodd;clip-rule:evenodd;stroke-linejoin:round;stroke-miterlimit:2;"><path d="M14.667,1.496c0.26,-0.885 1.078,-1.496 2,-1.496l16.667,0c1.142,0.001 2.082,0.941 2.082,2.083c0,0.224 -0.036,0.446 -0.107,0.658l-7.417,22.258c0,0 15.859,-0 15.86,-0c1.143,0 2.083,0.94 2.083,2.083c0,0.463 -0.155,0.914 -0.439,1.279l-29.167,37.5c-0.394,0.509 -1.003,0.808 -1.647,0.808c-1.143,0 -2.083,-0.94 -2.083,-2.083c0,-0.209 0.031,-0.417 0.093,-0.616l7.504,-24.388c0,0 -13.847,0 -13.847,0c-1.143,0 -2.083,-0.94 -2.083,-2.083c0,-0.199 0.028,-0.397 0.085,-0.588l10.417,-35.417Z" style="fill:#154e3d;fill-rule:nonzero;"/></svg>